<?xml version="1.0" encoding="UTF-8" standalone="no"?>
<svg
   xmlns:dc="http://purl.org/dc/elements/1.1/"
   xmlns:cc="http://creativecommons.org/ns#"
   xmlns:rdf="http://www.w3.org/1999/02/22-rdf-syntax-ns#"
   xmlns:svg="http://www.w3.org/2000/svg"
   xmlns="http://www.w3.org/2000/svg"
   xmlns:sodipodi="http://sodipodi.sourceforge.net/DTD/sodipodi-0.dtd"
   xmlns:inkscape="http://www.inkscape.org/namespaces/inkscape"
   version="1.1"
   id="Layer_1"
   x="0px"
   y="0px"
   viewBox="0 0 853.58678 483.36811"
   xml:space="preserve"
   sodipodi:docname="maggotuba.svg"
   width="225.84483mm"
   height="127.89114mm"
   inkscape:version="1.0.2 (1.0.2+r75+1)"><metadata
   id="metadata43"><rdf:RDF><cc:Work
       rdf:about=""><dc:format>image/svg+xml</dc:format><dc:type
         rdf:resource="http://purl.org/dc/dcmitype/StillImage" /><dc:title /></cc:Work></rdf:RDF></metadata><defs
   id="defs41"><inkscape:path-effect
     effect="bend_path"
     id="path-effect65497"
     is_visible="true"
     lpeversion="1"
     bendpath="m 3.3337759,438.14002 c 0,0 80.0446801,7.72601 121.1129141,-0.25414 41.06822,-7.98014 151.8292,-97.03421 177.27945,-132.78399 25.45025,-35.74979 53.34518,-52.9399 79.4897,-70.96488 31.39251,-21.64315 90.30245,-25.1781 127.75558,-26.53331"
     prop_scale="1"
     scale_y_rel="false"
     vertical="false"
     hide_knot="false"
     bendpath-nodetypes="czzsc" /><inkscape:path-effect
     effect="bend_path"
     id="path-effect64672"
     is_visible="true"
     lpeversion="1"
     bendpath="M 60.163609,407.96331 H 165.36553"
     prop_scale="1"
     scale_y_rel="false"
     vertical="false"
     hide_knot="false" /></defs><sodipodi:namedview
   pagecolor="#ffffff"
   bordercolor="#666666"
   borderopacity="1"
   objecttolerance="10"
   gridtolerance="10"
   guidetolerance="10"
   inkscape:pageopacity="0"
   inkscape:pageshadow="2"
   inkscape:window-width="2493"
   inkscape:window-height="1385"
   id="namedview39"
   showgrid="false"
   units="mm"
   fit-margin-top="0"
   fit-margin-left="0"
   fit-margin-right="0"
   fit-margin-bottom="0"
   inkscape:zoom="2.0212766"
   inkscape:cx="429.28629"
   inkscape:cy="234.48281"
   inkscape:window-x="67"
   inkscape:window-y="27"
   inkscape:window-maximized="1"
   inkscape:current-layer="Layer_1"
   inkscape:document-rotation="0" />
<g
   id="g972"><rect
     style="fill:#ffffff;fill-opacity:1;stroke:none;stroke-width:10;stroke-linejoin:round"
     id="rect951"
     width="37.591"
     height="52.329716"
     x="808.33893"
     y="174.38519" /><rect
     style="fill:#ffffff;fill-opacity:1;stroke:none;stroke-width:10;stroke-linejoin:round"
     id="rect953"
     width="105.36958"
     height="23.837656"
     x="546.04968"
     y="189.26872" /><path
     style="fill:#ffffff;fill-opacity:1;stroke:none;stroke-width:1px;stroke-linecap:butt;stroke-linejoin:miter;stroke-opacity:1"
     d="m 584.53907,16.171288 26.75673,27.169519 23.70244,50.462373 2.40991,61.17936 -0.46853,88.1038 66.63559,-1.42557 -7.85612,-85.10144 0.30354,-54.36284 L 715.1316,50.300218 752.48459,9.6936896 645.55742,8.059524 578.6102,8.172398 Z"
     id="path947" /><rect
     style="fill:#ffffff;fill-opacity:1;stroke:none;stroke-width:10;stroke-linejoin:round"
     id="rect945"
     width="136.85344"
     height="135.44122"
     x="701.83502"
     y="117.75987"
     ry="67.720612" /><rect
     style="fill:#ffffff;fill-opacity:1;stroke:none;stroke-width:13.2834;stroke-linejoin:round"
     id="rect939"
     width="208.32208"
     height="299.34982"
     x="638.12177"
     y="155.62505"
     transform="skewX(0.0136523)"
     ry="100.1748" /></g><path
   style="fill:#ffffff;fill-opacity:1;stroke:#000000;stroke-width:10;stroke-linecap:butt;stroke-linejoin:miter;stroke-miterlimit:4;stroke-dasharray:none;stroke-opacity:1"
   d="m 482.70283,213.51541 c 0,0 13.25468,4.71508 11.34575,9.94021 -0.93582,2.56256 -8.73042,1.4944 -16.29341,-0.0263 -7.56532,-1.52121 -15.01248,-3.46512 -15.01248,-3.46512 0,0 -6.25363,6.82974 -15.78899,10.8555 -0.4161,0.17566 -0.8238,0.34391 -1.2233,0.50505 0,0 -10e-6,0 -10e-6,0 -8.8122,3.55747 -13.67574,3.55629 -15.23227,3.58647 -1.47811,0.0263 -6.33804,8.43125 -12.61037,13.19884 0,0 0,0 0,0 -0.63969,0.49623 -1.29538,0.95129 -1.96776,1.35255 -3.49542,2.0864 -7.53333,3.86524 -10.0298,4.94522 -2.66334,1.15218 -4.40158,1.85188 -4.40158,1.85188 0,0 -0.54402,2.88664 -0.90321,5.97212 -1.83578,3.9575 -4.38166,8.36909 -7.30086,10.47811 -6.01856,4.35265 -16.65151,7.86067 -16.65151,7.86067 0,0 1.83702,5.88087 -1.56959,8.59773 -3.37439,2.69423 -7.66052,2.21181 -7.66052,2.21181 0,0 -0.29296,0.89509 -0.9103,2.38938 -1.28511,3.09559 -4.01769,8.81551 -8.52742,14.70348 -6.63053,8.65579 -10.77202,9.15733 -10.77202,9.15733 0,0 2.55932,4.1171 1.09132,7.48052 -1.45042,3.32492 -6.8517,1.83143 -6.8517,1.83143 0,0 -0.53452,2.02286 -1.77371,5.16409 -2.38991,4.34438 -5.60831,9.42983 -9.67213,14.42345 -2.53401,3.11381 -4.78582,5.44119 -6.62239,7.14751 -5.02246,4.78736 -8.07726,6.34352 -8.07726,6.34352 0,0 0.71669,6.80853 -3.95483,11.08263 -4.61225,4.22054 -8.83094,1.21346 -8.83094,1.21346 0,0 -0.6344,0.72051 -1.66301,1.86354 -3.26931,3.63934 -9.09725,9.93981 -13.27642,13.76762 -2.63531,2.41543 -7.74527,5.46295 -12.31555,7.91742 -4.53495,2.43549 -8.41743,4.22517 -8.41743,4.22517 0,0 1.96272,4.78327 -1.73476,7.9157 -3.6983,3.13325 -8.95528,1.42887 -8.95528,1.42887 -3.25534,2.70615 -6.52546,5.3834 -9.80848,8.03287 -1.77032,1.43501 -3.55169,2.86736 -5.34458,4.29621 -10.85618,8.65147 -19.78076,13.09229 -19.78076,13.09229 0,0 2.32769,4.85388 -2.57627,8.41222 -4.93013,3.57892 -10.6663,1.11311 -10.6663,1.11311 0,0 -5.89951,7.20378 -17.87274,12.00907 -0.38609,0.15498 -0.76901,0.30676 -1.14859,0.4554 0,0 0,0 0,0 -11.42491,4.49968 -20.31666,6.22551 -20.31666,6.22551 0,0 -1.01324,6.58768 -6.59767,9.35025 -0.0172,0.009 -0.0344,0.017 -0.0517,0.0254 -2.56752,1.3579 -5.77631,1.04027 -8.28807,0.34177 -2.51672,-0.69988 -4.27028,-1.75966 -4.27028,-1.75966 0,0 -5.90378,3.65361 -17.32283,6.21259 0,0 0,0 0,0 -3.71802,0.7188 -7.73903,1.18075 -11.72597,1.12056 -12.71747,-0.19301 -21.307276,-7.8405 -21.307276,-7.8405 0,0 -1.813666,4.26936 -7.500463,4.89054 -0.531485,0.0581 -1.327962,0.0736 -2.330714,0.0442 -4.731201,-0.10515 -13.238302,-1.05691 -21.832214,-2.92485 -8.484489,-1.84416 -16.496965,-4.46791 -20.10809,-7.34376 -0.582958,-0.49356 -1.046129,-0.98928 -1.370514,-1.48469 -4.638217,-7.08373 0.750024,-6.13837 -1.410923,-8.96529 -2.158434,-2.8279 -7.39054,1.462 -10.604656,-0.91395 -3.214689,-2.37709 1.381414,-5.99208 -2.073212,-8.15807 -3.454623,-2.166 -2.760292,-3.12039 -8.431668,-3.1483 -5.670901,-0.0267 -5.312358,2.59157 -9.144473,1.94179 -3.835321,-0.65268 -8.3082993,-3.62117 -7.8297065,-6.24221 0.4769066,-2.62073 14.1992055,-5.16075 14.3711185,-8.17645 0.173953,-3.0161 -11.389268,-3.26629 -14.5552278,-6.36969 -3.1647902,-3.10223 -1.8567718,-7.21931 0.8441569,-7.69386 2.700495,-0.4751 6.2368469,2.89865 10.2998229,2.95523 4.062206,0.0558 5.725883,-2.44075 11.112437,-3.17772 5.3867,-0.73757 2.952725,2.42883 6.24122,2.77322 3.289342,0.34155 -0.19447,-5.68058 5.667055,-7.24385 3.990125,-1.06431 7.670615,-0.75297 9.617092,-0.44526 0.881129,0.11824 1.392877,0.24534 1.392877,0.24534 0,0 -1.574471,-3.7587 4.540565,-6.4883 3.008833,-1.34264 10.919898,-1.43121 17.825305,-1.33801 6.960066,0.0939 13.099609,0.35749 13.099609,0.35749 0,0 -0.958526,-1.04988 0.122859,-2.41959 0,0 0,0 0,0 0.526365,-0.64359 1.502372,-1.34993 3.211323,-2.06935 1.673677,-0.70476 6.156117,-1.42782 11.207517,-2.30061 5.38409,-0.93028 10.06003,-1.82137 14.44357,-3.1012 0.46242,-0.10533 4.3306,-2.34486 4.3306,-2.34486 0,0 0.23114,-3.53908 1.6989,-4.87413 0.10893,-0.11752 0.22446,-0.21771 0.34707,-0.29659 0.71358,-0.46022 3.70296,-0.5559 6.56581,-0.67941 2.88159,-0.12432 5.71247,-0.26589 5.71247,-0.26589 0,0 1.33599,-2.56878 6.73399,-7.13853 1.21063,-1.03124 2.60977,-2.16214 4.23256,-3.40095 8.9305,-6.81666 14.88575,-8.05398 14.88575,-8.05398 0,0 -0.25181,-5.24642 4.06969,-8.77049 4.34141,-3.53891 8.09041,-2.54656 8.09041,-2.54656 0,0 8.76251,-8.5843 13.54646,-12.05199 0.61408,-0.44494 1.34098,-0.87394 2.1416,-1.28475 5.35805,-2.76173 14.03266,-4.74513 14.03266,-4.74513 0,0 -2.97441,-4.25011 1.66476,-8.22549 4.62123,-3.95794 10.46139,-2.27845 10.46139,-2.27845 0,0 8.8367,-7.43149 13.5324,-11.17859 3.24384,-2.58354 9.48562,-7.20195 11.04086,-8.35332 0.54555,-0.40463 0.86234,-0.6378 0.86234,-0.6378 0,0 -2.45445,-2.09737 1.13866,-7.84636 3.51627,-5.62777 6.25943,-3.40772 6.25943,-3.40772 0,0 3.38177,-3.95001 6.55279,-7.38315 1.85663,-2.06315 3.51428,-3.72238 4.69086,-4.47744 2.09279,-1.3452 5.53343,-3.02338 7.36129,-3.94432 2.04587,-1.79385 3.51099,-2.99846 3.51099,-2.99846 0,0 -2.0778,-4.4018 1.24106,-9.4611 3.32154,-5.06023 7.93987,-6.403 7.93987,-6.403 0,0 7.0646,-10.06881 11.62143,-14.88787 2.30714,-2.44001 6.98221,-4.89064 11.22489,-6.67753 4.19934,-1.76863 7.81169,-2.82447 7.81169,-2.82447 0,0 0.4153,-5.18319 3.19068,-8.4593 0,0 0,0 0,0 0.29101,-0.34095 0.60612,-0.65887 0.94681,-0.94503 3.5763,-3.00173 8.01462,-3.57499 8.01462,-3.57499 0,0 8.19967,-10.76194 13.74864,-15.16095 2.85531,-2.26471 8.13858,-4.28973 12.67411,-5.69823 4.51489,-1.4021 8.24757,-2.2007 8.24757,-2.2007 0,0 0.32423,-0.51513 0.91998,-1.36414 3.85041,-4.07983 12.18327,-11.83781 22.41397,-15.88466 4.97428,-1.96735 10.41801,-3.79583 15.96654,-4.90162 9.07539,-1.95248 17.3058,-2.11573 20.04355,1.42194 3.12972,-2.56091 10.37295,-3.47245 19.93379,-5.00796 0.42729,-0.0687 0.85466,-0.12862 1.28121,-0.18029 9.2057,-1.12618 17.90461,1.48388 17.90461,1.48388 0,0 5.33099,-5.12048 11.57244,-9.89646 6.24888,-4.78166 13.29381,-9.16442 16.25104,-8.18548 2.94179,0.97381 0.885,5.0389 -1.84152,8.85569 -2.73199,3.82443 -6.14607,7.44015 -6.14607,7.44015 0,0 5.10934,0.124 11.12157,1.16343 6.04513,1.04511 12.86803,2.98513 16.67774,6.34164 7.56672,6.66723 7.44666,14.80951 3.96482,20.50523 -1.74582,2.85559 -7.6447,5.67402 -13.03279,7.82212 -5.39929,2.15257 -10.31906,3.65607 -10.31906,3.65607 9e-5,-5.5e-4 1.9e-4,-0.001 2.9e-4,-0.002 z"
   id="path242"
   sodipodi:nodetypes="cscssscscscscscscscscscscscscscscsssssssscsssssscscscscscscscscscscscscscscscsc"
   inkscape:path-effect="#path-effect65497"
   inkscape:original-d="m 471.68851,345.56464 c 0,0 10.34843,5.56064 8.62157,10.58994 -1.72626,5.02935 -25.04877,-5.89124 -25.04877,-5.89124 0,0 -5.59993,6.19776 -14.04397,8.69613 -8.44458,2.49838 -12.98531,1.30233 -14.36208,0.97867 -1.37724,-0.32644 -8.2603,8.42049 -16.30644,10.09607 -8.04554,1.67616 -17.13139,0.52848 -17.13139,0.52848 0,0 -8.69993,8.84632 -14.58057,9.02739 -5.88066,0.18464 -15.12858,-3.07801 -15.12858,-3.07801 0,0 -1.67419,5.87602 -5.63959,5.99817 -3.96491,0.12455 -6.83333,-2.96566 -6.83333,-2.96566 0,0 -7.03365,4.96377 -17.88037,6.52304 -10.84732,1.55868 -13.95245,-1.56285 -13.95245,-1.56285 0,0 -1.40513,4.65706 -5.07041,5.65512 -3.66478,0.99869 -5.78055,-4.25177 -5.78055,-4.25177 0,0 -5.98649,2.53654 -15.08604,3.06254 -9.09895,0.52598 -13.47236,-1.40414 -13.47236,-1.40414 0,0 -3.00408,5.29138 -7.46382,5.15018 -4.45972,-0.1407 -5.23622,-5.17689 -5.23622,-5.17689 0,0 -10.68802,1.4421 -15.90357,1.60263 -5.21552,0.16298 -17.61017,-4.14148 -17.61017,-4.14148 0,0 -1.1375,4.92892 -4.73892,5.04 -3.60086,0.11116 -5.89903,-4.48106 -5.89903,-4.48106 l -14.70275,0.4532 c -10.40042,0.32027 -17.64604,-1.16303 -17.64604,-1.16303 0,0 -0.68099,5.2767 -5.08884,5.41251 -4.40791,0.13709 -6.87658,-5.07975 -6.87658,-5.07975 0,0 -6.48478,2.61308 -15.55594,0.47916 -9.07183,-2.13339 -15.16568,-4.80592 -15.16568,-4.80592 0,0 -2.63781,5.33462 -6.49313,5.45333 -3.85522,0.11995 -6.60288,-6.33736 -6.60288,-6.33736 0,0 -8.2533,2.20433 -16.29859,0.34874 -8.0458,-1.85676 -14.0865,-9.73661 -14.0865,-9.73661 0,0 -1.45889,4.13067 -5.645144,4.5817 -4.18686,0.45105 -30.39916,-4.598 -34.32721,-11.37565 -3.92796,-6.77764 0.34696,-6.17494 -1.46999,-8.86003 -1.81501,-2.68623 -5.75985,1.92716 -8.39393,-0.24104 -2.63458,-2.1693 0.83503,-6.0687 -1.98721,-8.01201 -2.82228,-1.94335 -2.31829,-2.93988 -6.8004,-2.60864 -4.48215,0.33243 -4.07598,2.92316 -7.13213,2.51722 -3.05607,-0.40826 -6.73721,-3.0887 -6.48847,-5.73472 0.24746,-2.64599 10.99067,-6.05047 10.98707,-9.07148 -0.002,-3.02154 -9.18706,-2.53864 -11.85566,-5.43556 -2.66805,-2.89631 -1.84042,-7.08748 0.28684,-7.73283 2.12525,-0.64537 5.10397,2.49789 8.33832,2.29685 3.2337,-0.20176 4.44072,-2.79915 8.6977,-3.87624 4.25707,-1.07769 2.45951,2.23721 5.09212,2.37252 2.63316,0.13243 -0.4051,-5.65789 4.20526,-7.59 4.6112,-1.93269 8.82028,-0.85857 8.82028,-0.85857 0,0 -1.48311,-3.73541 3.55057,-6.63205 5.03418,-2.89604 26.56639,-1.0537 26.56639,-1.0537 0,0 -1.75533,-2.32253 2.986884,-4.35135 4.74215,-2.0294 37.52096,-3.59242 37.52096,-3.59242 0,0 2.50047,-3.72057 4.49015,-3.96798 1.98969,-0.24955 11.63477,4.82595 11.63477,4.82595 0,0 3.54077,-2.39737 13.50108,-3.45425 9.9603,-1.05632 14.82588,1.40608 14.82588,1.40608 0,0 2.38824,-4.49578 7.24336,-4.88301 4.85452,-0.3861 6.9453,2.64364 6.9453,2.64364 0,0 10.37918,-1.70283 15.30848,-1.55824 4.92925,0.14574 13.81249,5.2091 13.81249,5.2091 0,0 0.26711,-5.20154 5.44612,-5.36073 5.17862,-0.1576 8.0592,4.89284 8.0592,4.89284 0,0 9.75805,0.0305 14.87649,0.32855 5.11834,0.30374 12.65908,1.32145 12.65908,1.32145 0,0 -0.36059,-3.26495 5.39572,-4.9359 5.75503,-1.67154 6.14306,1.906 6.14306,1.906 0,0 11.39827,-1.06904 15.4783,-0.0345 4.08069,1.03174 12.81968,4.30258 12.81968,4.30258 0,0 1.52033,-4.23505 5.39407,-4.76624 3.87369,-0.52945 6.49626,2.06969 6.49626,2.06969 0,0 8.00136,-1.36668 12.30251,-1.49903 4.30055,-0.13247 13.48336,6.12731 13.48336,6.12731 0,0 3.044,-4.44541 6.13953,-4.54061 3.09488,-0.0935 5.77393,2.145 5.77393,2.145 0,0 9.00357,-3.69574 14.29976,-4.10418 5.29566,-0.41017 16.86177,5.35586 16.86177,5.35586 0,0 8.02419,-4.28005 15.82119,-3.82683 7.79645,0.45383 20.2739,1.14477 22.26423,7.62729 2.44857,-1.76969 7.31525,-1.05092 14.17005,-1.04365 6.85486,0.005 13.52024,3.9304 13.52024,3.9304 0,0 17.16509,-17.87124 21.39224,-15.55195 4.22715,2.31927 -6.72335,15.68767 -6.72335,15.68767 0,0 15.10509,2.10808 20.74891,9.08269 5.64324,6.97456 5.39253,15.04659 2.4601,20.63947 -2.93301,5.59344 -18.93254,10.26564 -18.93254,10.26564 z" /><g
   id="g6"
   transform="translate(458.83975)"
   style="fill:#000000;fill-opacity:1">
	<g
   id="g4"
   style="fill:#000000;fill-opacity:1">
		<path
   d="m 312.248,108.251 c -44.97,0 -81.626,36.174 -82.46,80.949 -11.27,-5.786 -24.025,-9.074 -37.541,-9.074 h -7.5 V 117.404 C 184.747,77.464 166.836,40.058 136.815,15 h 141.086 c -30.021,25.057 -47.93,62.463 -47.93,102.404 0,4.142 3.357,7.5 7.5,7.5 4.143,0 7.5,-3.358 7.5,-7.5 0,-42.247 22.567,-81.299 59.01,-102.404 h 27.983 c 4.143,0 7.5,-3.358 7.5,-7.5 0,-4.142 -3.357,-7.5 -7.5,-7.5 H 82.753 c -4.143,0 -7.5,3.358 -7.5,7.5 0,4.142 3.357,7.5 7.5,7.5 h 27.984 c 36.442,21.106 59.01,60.158 59.01,102.404 v 62.722 H 90.253 v -2.5 c 0,-4.142 -3.357,-7.5 -7.5,-7.5 -4.143,0 -7.5,3.358 -7.5,7.5 v 50 c 0,4.142 3.357,7.5 7.5,7.5 4.143,0 7.5,-3.358 7.5,-7.5 v -2.5 h 79.494 V 357.5 c 0,62.033 50.468,112.5 112.5,112.5 62.032,0 112.5,-50.467 112.5,-112.5 V 190.751 c 0,-45.491 -37.009,-82.5 -82.499,-82.5 z M 90.253,210.125 v -15 h 101.994 c 37.22,0 67.5,30.28 67.5,67.5 v 38 c 0,20.678 16.823,37.5 37.501,37.5 20.677,0 37.499,-16.822 37.499,-37.5 v -53 c 0,-20.678 -16.822,-37.5 -37.499,-37.5 -8.436,0 -16.229,2.802 -22.501,7.521 v -17.441 c 7,-3.329 14.696,-5.08 22.501,-5.08 28.948,0 52.499,23.551 52.499,52.5 v 53 c 0,28.949 -23.551,52.5 -52.499,52.5 -28.949,0 -52.501,-23.551 -52.501,-52.5 v -38 c 0,-28.949 -23.552,-52.5 -52.5,-52.5 h -14.981 c -0.039,0 -87.013,0 -87.013,0 z m 206.994,45 h 22.5 v 11.5 h -22.5 c -4.143,0 -7.5,3.358 -7.5,7.5 0,4.142 3.357,7.5 7.5,7.5 h 22.5 v 11.5 h -22.5 c -4.143,0 -7.5,3.358 -7.5,7.5 0,4.142 3.357,7.5 7.5,7.5 h 21.21 c -3.096,8.729 -11.432,15 -21.209,15 -12.407,0 -22.501,-10.093 -22.501,-22.5 v -53 c 0,-12.407 10.094,-22.5 22.501,-22.5 9.777,0 18.113,6.271 21.209,15 h -21.21 c -4.143,0 -7.5,3.358 -7.5,7.5 0,4.142 3.357,7.5 7.5,7.5 z M 275.41,183.76 c 3.286,-17.347 18.549,-30.51 36.838,-30.51 20.677,0 37.499,16.822 37.499,37.5 v 14.514 c -12.384,-15.319 -31.313,-25.139 -52.499,-25.139 -7.457,0 -14.84,1.241 -21.838,3.635 z m 74.337,159.227 V 357.5 c 0,20.678 -16.822,37.5 -37.499,37.5 -18.291,0 -33.556,-13.168 -36.837,-30.52 6.855,2.351 14.196,3.646 21.837,3.646 21.187,0 40.115,-9.82 52.499,-25.139 z M 282.247,455 c -53.762,0 -97.5,-43.738 -97.5,-97.5 V 225.125 h 7.5 c 20.678,0 37.5,16.822 37.5,37.5 V 357.5 c 0,45.491 37.01,82.5 82.501,82.5 10.552,0 20.637,-2.013 29.92,-5.64 C 325.625,447.287 304.821,455 282.247,455 Z m 97.5,-97.5 c 0,37.22 -30.28,67.5 -67.499,67.5 -37.22,0 -67.501,-30.28 -67.501,-67.5 v -14.514 c 4.28,5.293 9.335,9.933 15.002,13.734 v 0.78 c 0,28.949 23.551,52.5 52.499,52.5 28.948,0 52.499,-23.551 52.499,-52.5 V 190.751 c 0,-28.949 -23.551,-52.5 -52.499,-52.5 -28.949,0 -52.501,23.551 -52.501,52.5 v 24.528 c -4.222,-6.001 -9.209,-11.426 -14.841,-16.108 l -0.157,-8.489 c 0.037,-37.188 30.303,-67.431 67.499,-67.431 37.219,0 67.499,30.28 67.499,67.5 z"
   id="path2"
   style="fill:#000000;fill-opacity:1" />
	</g>
</g>
<g
   id="g8"
   transform="translate(-195.16322,-170.07568)">
</g>
<g
   id="g10"
   transform="translate(-195.16322,-170.07568)">
</g>
<g
   id="g12"
   transform="translate(-195.16322,-170.07568)">
</g>
<g
   id="g14"
   transform="translate(-195.16322,-170.07568)">
</g>
<g
   id="g16"
   transform="translate(-195.16322,-170.07568)">
</g>
<g
   id="g18"
   transform="translate(-195.16322,-170.07568)">
</g>
<g
   id="g20"
   transform="translate(-195.16322,-170.07568)">
</g>
<g
   id="g22"
   transform="translate(-195.16322,-170.07568)">
</g>
<g
   id="g24"
   transform="translate(-195.16322,-170.07568)">
</g>
<g
   id="g26"
   transform="translate(-195.16322,-170.07568)">
</g>
<g
   id="g28"
   transform="translate(-195.16322,-170.07568)">
</g>
<g
   id="g30"
   transform="translate(-195.16322,-170.07568)">
</g>
<g
   id="g32"
   transform="translate(-195.16322,-170.07568)">
</g>
<g
   id="g34"
   transform="translate(-195.16322,-170.07568)">
</g>
<g
   id="g36"
   transform="translate(-195.16322,-170.07568)">
</g>
<rect
   style="fill:#000000;fill-opacity:1;stroke:#000003;stroke-width:10;stroke-linejoin:round"
   id="rect943"
   width="2.5187583"
   height="11.12024"
   x="756.08673"
   y="255.125"
   ry="1.2593791" /></svg>
